<svg id="Capa_1" enable-background="new 0 0 512 512" height="512" viewBox="0 0 512 512" width="512" xmlns="http://www.w3.org/2000/svg" xmlns:xlink="http://www.w3.org/1999/xlink"><linearGradient id="SVGID_1_" gradientUnits="userSpaceOnUse" x1="256" x2="256" y1="512" y2="0"><stop offset="0" stop-color="#ffbef9"/><stop offset="1" stop-color="#fff1ff"/></linearGradient><linearGradient id="SVGID_2_" gradientUnits="userSpaceOnUse" x1="256" x2="256" y1="407" y2="105"><stop offset="0" stop-color="#ff81ff"/><stop offset="1" stop-color="#a93aff"/></linearGradient><g><g><circle cx="256" cy="256" fill="url(#SVGID_1_)" r="256"/></g><g><g><g><g><path d="m185.231 158.294c4.89 0 8.846-3.973 8.846-8.882v-35.529c0-4.91-3.957-8.882-8.846-8.882s-8.846 3.973-8.846 8.882v35.529c0 4.909 3.956 8.882 8.846 8.882zm70.769 0c4.89 0 8.846-3.973 8.846-8.882v-35.529c0-4.91-3.957-8.882-8.846-8.882s-8.846 3.973-8.846 8.882v35.529c0 4.909 3.956 8.882 8.846 8.882zm70.769 0c4.889 0 8.846-3.973 8.846-8.882v-35.529c0-4.91-3.957-8.882-8.846-8.882-4.89 0-8.846 3.973-8.846 8.882v35.529c0 4.909 3.957 8.882 8.846 8.882zm35.385-35.529h-8.846v26.647c0 14.694-11.904 26.647-26.538 26.647s-26.539-11.953-26.539-26.647v-26.647h-17.692v26.647c0 14.694-11.904 26.647-26.539 26.647s-26.539-11.953-26.539-26.647v-26.647h-17.692v26.647c0 14.694-11.904 26.647-26.539 26.647-14.634 0-26.538-11.953-26.538-26.647v-26.647h-8.846c-4.89 0-8.846 3.973-8.846 8.882v266.471c0 4.91 3.957 8.882 8.846 8.882h212.308c4.89 0 8.846-3.973 8.846-8.882v-266.471c0-4.91-3.957-8.882-8.846-8.882zm-176.923 213.176c-4.885 0-8.846-3.978-8.846-8.883 0-4.906 3.961-8.882 8.846-8.882s8.846 3.976 8.846 8.882-3.961 8.883-8.846 8.883zm0-53.294c-4.885 0-8.846-3.977-8.846-8.882 0-4.906 3.961-8.882 8.846-8.882s8.846 3.976 8.846 8.882c0 4.905-3.961 8.882-8.846 8.882zm0-53.294c-4.885 0-8.846-3.977-8.846-8.882 0-4.906 3.961-8.882 8.846-8.882s8.846 3.976 8.846 8.882c0 4.905-3.961 8.882-8.846 8.882zm141.538 106.588h-106.154c-4.889 0-8.846-3.973-8.846-8.883 0-4.909 3.957-8.882 8.846-8.882h106.154c4.889 0 8.846 3.973 8.846 8.882 0 4.91-3.956 8.883-8.846 8.883zm0-53.294h-106.154c-4.889 0-8.846-3.973-8.846-8.882s3.957-8.882 8.846-8.882h106.154c4.889 0 8.846 3.973 8.846 8.882s-3.956 8.882-8.846 8.882zm0-53.294h-106.154c-4.889 0-8.846-3.973-8.846-8.882 0-4.91 3.957-8.882 8.846-8.882h106.154c4.889 0 8.846 3.973 8.846 8.882s-3.956 8.882-8.846 8.882z" fill="url(#SVGID_2_)"/></g></g></g></g></g></svg>