<svg width="54" height="56" viewBox="0 0 54 56" fill="none" xmlns="http://www.w3.org/2000/svg">
<path d="M46.91 47.496L53.394 44.254L35.756 37.756L42.254 55.394L45.496 48.91L52.293 55.707C52.488 55.902 52.744 56 53 56C53.256 56 53.512 55.902 53.707 55.707C54.098 55.316 54.098 54.684 53.707 54.293L46.91 47.496ZM39.131 41.131L48.364 44.533L44.476 46.476L42.533 50.364L39.131 41.131Z" fill="white"/>
<path d="M27 14H45C45.553 14 46 13.553 46 13C46 12.447 45.553 12 45 12H27C26.447 12 26 12.447 26 13C26 13.553 26.447 14 27 14Z" fill="white"/>
<path d="M27 28H45C45.553 28 46 27.553 46 27C46 26.447 45.553 26 45 26H27C26.447 26 26 26.447 26 27C26 27.553 26.447 28 27 28Z" fill="white"/>
<path d="M20.579 7.241C20.162 6.883 19.528 6.928 19.17 7.349L12.922 14.637L9.10001 11.771C8.66001 11.44 8.03301 11.528 7.70101 11.971C7.36901 12.412 7.45901 13.039 7.90101 13.37L12.472 16.799C12.651 16.934 12.862 16.999 13.071 16.999C13.354 16.999 13.634 16.88 13.831 16.649L20.688 8.649C21.048 8.231 20.999 7.601 20.579 7.241Z" fill="white"/>
<path d="M20.579 21.241C20.162 20.882 19.528 20.929 19.17 21.349L12.922 28.637L9.10001 25.771C8.66001 25.44 8.03301 25.528 7.70101 25.971C7.36901 26.412 7.45901 27.039 7.90101 27.37L12.472 30.799C12.651 30.934 12.862 30.999 13.071 30.999C13.354 30.999 13.634 30.88 13.831 30.649L20.688 22.649C21.048 22.231 20.999 21.601 20.579 21.241Z" fill="white"/>
<path d="M19.17 36.35L12.922 43.637L9.10001 40.771C8.66001 40.441 8.03301 40.528 7.70101 40.971C7.36901 41.412 7.45901 42.039 7.90101 42.37L12.472 45.799C12.651 45.934 12.862 45.999 13.071 45.999C13.354 45.999 13.634 45.88 13.831 45.649L20.688 37.65C21.048 37.231 21 36.6 20.58 36.241C20.162 35.883 19.528 35.929 19.17 36.35Z" fill="white"/>
<path d="M41.824 0H12.176C5.462 0 0 5.462 0 12.176V41.824C0 48.538 5.462 54 12.176 54H32C32.553 54 33 53.553 33 53C33 52.447 32.553 52 32 52H12.176C6.564 52 2 47.436 2 41.824V12.176C2 6.564 6.564 2 12.176 2H41.824C47.436 2 52 6.564 52 12.176V37C52 37.553 52.447 38 53 38C53.553 38 54 37.553 54 37V12.176C54 5.462 48.538 0 41.824 0Z" fill="white"/>
</svg>
